<?xml version="1.0" encoding="utf-8"?>
<!-- Generator: Adobe Illustrator 12.0.0, SVG Export Plug-In . SVG Version: 6.00 Build 51448)  -->
<!DOCTYPE svg PUBLIC "-//W3C//DTD SVG 1.1//EN" "http://www.w3.org/Graphics/SVG/1.1/DTD/svg11.dtd" [
	<!ENTITY ns_svg "http://www.w3.org/2000/svg">
	<!ENTITY ns_xlink "http://www.w3.org/1999/xlink">
]>
<svg  version="1.1" id="Layer_1" xmlns="&ns_svg;" xmlns:xlink="&ns_xlink;" width="751" height="601" viewBox="0 0 751 601"
	 overflow="visible" enable-background="new 0 0 751 601" xml:space="preserve">
<g>
	<g>
		<g>
			<path fill="#FFFFFF" d="M0.5,50.5c0-27.6142578,22.3852539-50,50-50h650c27.6142578,0,50,22.3857422,50,50v500
				c0,27.6152344-22.3857422,50-50,50h-650c-27.6147461,0-50-22.3847656-50-50V50.5L0.5,50.5z"/>
			<path fill="#FFFFFF" d="M375.5,300.5"/>
		</g>
		<g>
			<path fill="none" stroke="#000000" stroke-linecap="round" stroke-linejoin="round" stroke-miterlimit="3.863693" d="M0.5,50.5
				c0-27.6142578,22.3852539-50,50-50h650c27.6142578,0,50,22.3857422,50,50v500c0,27.6152344-22.3857422,50-50,50h-650
				c-27.6147461,0-50-22.3847656-50-50V50.5L0.5,50.5z"/>
			<path fill="none" stroke="#000000" stroke-linecap="round" stroke-linejoin="round" stroke-miterlimit="3.863693" d="
				M375.5,300.5"/>
		</g>
	</g>
	<g>
		<g>
			<path d="M10.5,50.5c0-22.0913086,17.9082031-40,40-40h650c22.0917969,0,40,17.9086914,40,40v500
				c0,22.0917969-17.9082031,40-40,40h-650c-22.0917969,0-40-17.9082031-40-40V50.5L10.5,50.5z"/>
			<path d="M375.5,300.5"/>
		</g>
	</g>
	<g>
		<g>
			<path fill="#FFFFFF" d="M25.5,50.5c0-13.8071289,11.1928711-25,25-25h650c13.8076172,0,25,11.1928711,25,25v500
				c0,13.8076172-11.1923828,25-25,25h-650c-13.8071289,0-25-11.1923828-25-25V50.5L25.5,50.5z"/>
			<path fill="#FFFFFF" d="M375.5,300.5"/>
		</g>
	</g>
</g>
<g>
	<path fill-rule="evenodd" clip-rule="evenodd" d="M99.6108398,445.3125V210.5869141H73.2421875v-36.7441406h3.0258789
		c6.0517578,0,12.1035156-1.5844727,18.1557617-4.7548828c6.0517578-3.1699219,11.0947266-7.637207,15.1293945-13.4003906
		h36.7436523v289.625H99.6108398z"/>
	<path fill-rule="evenodd" clip-rule="evenodd" d="M414.2070313,300.9326172
		c0,23.0546875-2.7373047,45.1005859-8.2128906,66.1376953c-5.4755859,21.0380859-13.2568359,38.0410156-23.3427734,51.0097656
		C366.5126953,439.6933594,343.1699219,450.5,312.6225586,450.5c-20.4614258,0-37.3198242-4.1787109-50.5766602-12.5361328
		c-13.2563477-8.3564453-24.2075195-21.4697266-32.8530273-39.3369141
		c-6.0517578-12.3925781-10.9506836-27.4492188-14.6972656-45.1728516s-5.6196289-35.2304688-5.6196289-52.5214844
		c0-23.9199219,2.8095703-46.1098633,8.4296875-66.5708008c5.6191406-20.4609375,13.328125-37.6079102,23.1264648-51.440918
		c8.6455078-10.9506836,18.9482422-19.0922852,30.9077148-24.4238281C283.2998047,153.1660156,297.6367188,150.5,314.3515625,150.5
		c18.4438477,0,34.1499023,4.1787109,47.1181641,12.5361328s24.0634766,21.4697266,33.2851563,39.3374023
		c6.0517578,12.9682617,10.8066406,28.0976563,14.265625,45.3891602
		C412.4785156,265.0537109,414.2070313,282.7768555,414.2070313,300.9326172z M368.3862305,300.9326172
		c0-16.4267578-1.440918-31.628418-4.3227539-45.6054688c-2.8818359-13.9765625-7.2045898-25.8642578-12.9682617-35.6625977
		c-4.6108398-7.4926758-9.8706055-12.96875-15.7783203-16.4267578s-13.1845703-5.4750977-21.8295898-6.0517578
		c-11.2392578-0.5761719-20.6054688,2.0175781-28.0981445,7.78125
		c-7.4931641,5.7636719-13.6889648,15.1293945-18.5878906,28.0976563c-3.746582,8.6455078-6.5561523,19.0922852-8.4296875,31.340332
		c-1.8730469,12.2475586-2.8095703,24.4233398-2.8095703,36.5273438c0,15.5615234,1.440918,30.5478516,4.3227539,44.9560547
		c2.8818359,14.4101563,7.2045898,26.2255859,12.9682617,35.4472656
		c4.6108398,7.4921875,10.0864258,13.1123047,16.4262695,16.859375c6.340332,3.7460938,14.1210938,5.6191406,23.3432617,5.6191406
		c10.6625977,0,19.5244141-2.8818359,26.5849609-8.6455078s13.0405273-15.1298828,17.9394531-28.0986328
		c1.440918-3.7460938,2.8818359-8.2851563,4.3227539-13.6162109s2.6655273-10.9511719,3.6743164-16.8583984
		c1.0083008-5.9082031,1.8012695-11.8886719,2.3774414-17.9394531
		C368.0976563,312.6035156,368.3862305,306.6953125,368.3862305,300.9326172z"/>
	<path fill-rule="evenodd" clip-rule="evenodd" d="M677.7578125,300.9326172
		c0,23.0546875-2.7373047,45.1005859-8.2128906,66.1376953c-5.4755859,21.0380859-13.2568359,38.0410156-23.34375,51.0097656
		C630.0634766,439.6933594,606.7207031,450.5,576.1728516,450.5c-20.4609375,0-37.3193359-4.1787109-50.5761719-12.5361328
		c-13.2568359-8.3564453-24.2080078-21.4697266-32.8535156-39.3369141
		c-6.0517578-12.3925781-10.9501953-27.4492188-14.6972656-45.1728516
		c-3.7460938-17.7236328-5.6191406-35.2304688-5.6191406-52.5214844c0-23.9199219,2.8095703-46.1098633,8.4287109-66.5708008
		c5.6201172-20.4609375,13.3291016-37.6079102,23.1269531-51.440918
		c8.6455078-10.9506836,18.9482422-19.0922852,30.9082031-24.4238281C546.8496094,153.1660156,561.1875,150.5,577.9023438,150.5
		c18.4433594,0,34.1494141,4.1787109,47.1181641,12.5361328c12.9677734,8.3574219,24.0634766,21.4697266,33.2851563,39.3374023
		c6.0517578,12.9682617,10.8066406,28.0976563,14.2646484,45.3891602
		C676.0292969,265.0537109,677.7578125,282.7768555,677.7578125,300.9326172z M631.9365234,300.9326172
		c0-16.4267578-1.4404297-31.628418-4.3232422-45.6054688c-2.8808594-13.9765625-7.2041016-25.8642578-12.9677734-35.6625977
		c-4.6113281-7.4926758-9.8701172-12.96875-15.7783203-16.4267578c-5.9072266-3.4580078-13.1845703-5.4750977-21.8300781-6.0517578
		c-11.2392578-0.5761719-20.6044922,2.0175781-28.0976563,7.78125s-13.6884766,15.1293945-18.5878906,28.0976563
		c-3.7460938,8.6455078-6.5566406,19.0922852-8.4296875,31.340332c-1.8730469,12.2475586-2.8095703,24.4233398-2.8095703,36.5273438
		c0,15.5615234,1.4414063,30.5478516,4.3232422,44.9560547c2.8818359,14.4101563,7.2041016,26.2255859,12.9677734,35.4472656
		c4.6113281,7.4921875,10.0869141,13.1123047,16.4267578,16.859375c6.3398438,3.7460938,14.1210938,5.6191406,23.3427734,5.6191406
		c10.6630859,0,19.5244141-2.8818359,26.5849609-8.6455078s13.0400391-15.1298828,17.9394531-28.0986328
		c1.4414063-3.7460938,2.8818359-8.2851563,4.3232422-13.6162109c1.4404297-5.3310547,2.6650391-10.9511719,3.6738281-16.8583984
		c1.0087891-5.9082031,1.8017578-11.8886719,2.3779297-17.9394531
		C631.6484375,312.6035156,631.9365234,306.6953125,631.9365234,300.9326172z"/>
</g>
</svg>
